<?xml version="1.0" encoding="UTF-8"?>
<svg id="Layer_2" data-name="Layer 2" xmlns="http://www.w3.org/2000/svg" version="1.1" viewBox="0 0 255.1 89.4">
  <defs>
    <style>
      .cls-1 {
        stroke-linecap: round;
        stroke-width: 6px;
      }

      .cls-1, .cls-2 {
        fill: none;
        stroke: #21212b;
        stroke-miterlimit: 10;
      }

      .cls-3 {
        fill: #21212b;
        font-family: Roboto-LightItalic, Roboto;
        font-size: 14.5px;
        font-style: italic;
        font-weight: 300;
      }

      .cls-2 {
        stroke-width: 2px;
      }

      .cls-4 {
        fill: #fff;
        stroke-width: 0px;
      }
    </style>
  </defs>
  <rect class="cls-4" width="255.1" height="89.4" rx="12.1" ry="12.1"/>
  <g>
    <text class="cls-3" transform="translate(111 75.4)"><tspan x="0" y="0">geospatial services</tspan></text>
    <circle class="cls-2" cx="76.4" cy="34.3" r="2.7"/>
    <path class="cls-1" d="M125.2,18.7c-5.1,0-7.5-.2-12.6-.2-8.3,0-15,6.7-15,15s6.7,15,15,15,7.5.2,12.6.2"/>
    <circle class="cls-1" cx="145.4" cy="34.1" r="14.9"/>
    <g>
      <path class="cls-1" d="M196.7,49.3v-15.3c0-8.2-6.7-14.9-14.9-14.9s-14.9,6.7-14.9,14.9v15.3"/>
      <path class="cls-1" d="M226.5,49.3v-15.3c0-8.2-6.7-14.9-14.9-14.9s-14.9,6.7-14.9,14.9v15.3"/>
    </g>
    <circle class="cls-1" cx="76.3" cy="33.4" r="14.9"/>
    <path class="cls-1" d="M75.3,48.3h-.7c-6.9,0-12.5,5.6-12.5,12.5s5.6,12.5,12.5,12.5h25.7"/>
    <path class="cls-1" d="M25.1,18.9v15.2c0,8.2,6.7,14.9,14.9,14.9s14.9-6.7,14.9-14.9v-15.2"/>
    <line class="cls-1" x1="112.4" y1="33.9" x2="119.7" y2="33.9"/>
  </g>
</svg>