<?xml version="1.0" encoding="UTF-8"?><svg id="Layer_2" xmlns="http://www.w3.org/2000/svg" width="138.6" height="66.42" viewBox="0 0 138.6 66.42"><defs><style>.cls-1{fill:#000;stroke-width:0px;}</style></defs><g id="Layer_1-2"><path class="cls-1" d="M70.03,0c1.65,6.47,3.22,12.64,4.57,17.93-13.88,4.86-27.82,8.33-40.41,14.55-12.46,6.16-23.55,15.09-34.19,22.12C7.51,36.77,45.82,6.11,70.03,0Z"/><path class="cls-1" d="M15.19,48.45c30.73-18.12,63.85-27.74,100.42-28.73-1.45,6.41-2.75,12.11-4.12,18.15-33.34-5.62-65.02.51-96.3,10.58Z"/><path class="cls-1" d="M42.67,46.48c32.96-8.06,64.04-6.49,95.93,4.13-5.08,5.65-9.52,10.68-14.13,15.55-.45.47-2.26.26-3.01-.25-23.4-16.01-49.78-20.05-78.79-19.43Z"/></g></svg>